<svg width="33" height="19" viewBox="0 0 33 19" fill="none" xmlns="http://www.w3.org/2000/svg">
<path d="M22.9085 0.296875C23.1049 0.098958 23.3136 0 23.5346 0C23.7556 0 23.9643 0.098958 24.1607 0.296875L32.7054 8.90625C32.9018 9.05469 33 9.2526 33 9.5C33 9.7474 32.9018 9.94531 32.7054 10.0937L24.1607 18.7031C23.9643 18.901 23.7556 19 23.5346 19C23.3136 19 23.1049 18.901 22.9085 18.7031L22.3929 18.1836C22.1964 18.0352 22.0982 17.8372 22.0982 17.5898C22.0982 17.3424 22.1964 17.1198 22.3929 16.9219L28.5804 10.7617H0.883929C0.638393 10.7617 0.429687 10.6751 0.257812 10.502C0.0859379 10.3288 0 10.1185 0 9.87109V9.12891C0 8.88151 0.0859379 8.67122 0.257812 8.49805C0.429687 8.32487 0.638393 8.23828 0.883929 8.23828H28.5804L22.3929 2.07812C22.1964 1.88021 22.0982 1.65755 22.0982 1.41016C22.0982 1.16276 22.1964 0.964844 22.3929 0.816406L22.9085 0.296875Z" fill="white"/>
</svg>
