<svg width="28" height="28" viewBox="0 0 28 28" fill="none" xmlns="http://www.w3.org/2000/svg">
<path fill-rule="evenodd" clip-rule="evenodd" d="M14.1406 0.25C16.6368 0.25 18.9467 0.874045 21.0703 2.12213C23.1939 3.37022 24.8798 5.05607 26.1279 7.17969C27.376 9.3033 28 11.6132 28 14.1094C28 16.6056 27.376 18.9154 26.1279 21.0391C24.8798 23.1627 23.1939 24.8485 21.0703 26.0966C18.9467 27.3447 16.6368 27.9687 14.1406 27.9687C11.6444 27.9687 9.33455 27.3447 7.21094 26.0966C5.08732 24.8485 3.40147 23.1627 2.15338 21.0391C0.905295 18.9154 0.28125 16.6056 0.28125 14.1094C0.28125 11.6132 0.905295 9.3033 2.15338 7.17969C3.40147 5.05607 5.08732 3.37022 7.21094 2.12213C9.33455 0.874045 11.6444 0.25 14.1406 0.25ZM23.3057 6.62086C22.8959 7.1797 22.3184 7.77581 21.5733 8.40916C20.1576 9.60137 18.5369 10.57 16.7114 11.3152C17.0467 12.0603 17.382 12.8427 17.7173 13.6623C19.3938 13.4388 21.2194 13.4201 23.194 13.6064C24.2371 13.7182 25.1686 13.8486 25.9882 13.9976C25.9509 12.6191 25.7088 11.3058 25.2617 10.0578C24.8146 8.80967 24.1626 7.66404 23.3057 6.62086ZM16.9908 2.6251C18.8536 3.0908 20.5115 3.97564 21.9645 5.27961C21.6292 5.8012 21.1076 6.36005 20.3997 6.95615C19.0958 8.03659 17.5496 8.89348 15.7613 9.52684C14.4201 7.03066 12.9484 4.72077 11.3464 2.59715C13.2465 2.15008 15.1279 2.15939 16.9908 2.6251ZM9.11102 3.43543C7.43448 4.21781 6.01874 5.3355 4.86379 6.7885C3.70884 8.2415 2.94509 9.88078 2.57252 11.7063C3.57845 11.7063 4.77065 11.6505 6.14914 11.5387C8.71983 11.3152 11.1601 10.8867 13.47 10.2533C12.1288 7.83168 10.6758 5.55904 9.11102 3.43543ZM3.10343 18.3845C2.56321 17.0247 2.2931 15.5996 2.2931 14.1094V13.774C3.44805 13.774 4.80791 13.7182 6.37267 13.6064C9.27867 13.3456 11.9798 12.8426 14.4759 12.0975C14.8485 12.7681 15.1652 13.4387 15.426 14.1094C13.3769 14.6682 11.4023 15.73 9.50221 17.2948C7.75116 18.7105 6.37267 20.2939 5.36675 22.045C4.39809 20.9645 3.64364 19.7444 3.10343 18.3845ZM6.87565 23.4421C8.58944 24.8206 10.5175 25.6309 12.6597 25.8731C14.8019 26.1152 16.8417 25.8265 18.7791 25.0069C18.2947 22.1381 17.4565 19.1576 16.2643 16.0653C13.9916 16.8105 11.9798 17.9281 10.2287 19.4184C8.66395 20.7224 7.54626 22.0636 6.87565 23.4421ZM24.0881 20.5361C23.194 21.9146 22.0763 23.0509 20.735 23.945C20.288 21.2998 19.5242 18.487 18.4438 15.5065C20.0085 15.2457 21.6478 15.2457 23.3616 15.5065C24.3303 15.6182 25.1499 15.7859 25.8205 16.0094C25.5597 17.6487 24.9823 19.1576 24.0881 20.5361Z" fill="white"/>
</svg>
