<svg width="21" height="28" viewBox="0 0 21 28" fill="none" xmlns="http://www.w3.org/2000/svg">
<path fill-rule="evenodd" clip-rule="evenodd" d="M19.6924 14.3701C19.1956 13.8734 18.5924 13.625 17.8828 13.625H5.10937V8.51562C5.10937 6.45768 5.49967 4.861 6.28027 3.72558C7.13183 2.37728 8.44466 1.70312 10.2187 1.70312C11.9928 1.70312 13.3057 2.37728 14.1572 3.72558C14.9378 4.861 15.3281 6.45768 15.3281 8.51562V9.58007C15.3281 9.75748 15.3902 9.90828 15.5144 10.0325C15.6386 10.1567 15.7894 10.2187 15.9668 10.2187H16.3926C16.57 10.2187 16.7208 10.1567 16.845 10.0325C16.9691 9.90828 17.0312 9.75748 17.0312 9.58007V8.56884C17.0312 6.08512 16.4813 4.0804 15.3813 2.55469C14.2104 0.851562 12.4984 0 10.2454 0C7.99227 0 6.26253 0.833822 5.05615 2.50146C3.95622 3.9917 3.40625 5.99642 3.40625 8.51562V13.625H2.55469C1.84505 13.625 1.24186 13.8734 0.745117 14.3701C0.248373 14.8669 0 15.47 0 16.1797V24.6953C0 25.4049 0.248373 26.0081 0.745117 26.5049C1.24186 27.0016 1.84505 27.25 2.55469 27.25H17.8828C18.5924 27.25 19.1956 27.0016 19.6924 26.5049C20.1891 26.0081 20.4375 25.4049 20.4375 24.6953V16.1797C20.4375 15.47 20.1891 14.8669 19.6924 14.3701ZM18.7344 16.1797V24.6953C18.7344 24.9437 18.6545 25.1477 18.4949 25.3074C18.3352 25.467 18.1312 25.5469 17.8828 25.5469H2.55469C2.30631 25.5469 2.10229 25.467 1.94263 25.3074C1.78296 25.1477 1.70312 24.9437 1.70312 24.6953V16.1797C1.70312 15.9313 1.78296 15.7273 1.94263 15.5676C2.10229 15.4079 2.30631 15.3281 2.55469 15.3281H17.8828C18.1312 15.3281 18.3352 15.4079 18.4949 15.5676C18.6545 15.7273 18.7344 15.9313 18.7344 16.1797Z" fill="#C0CCDA"/>
</svg>
