<svg width="27" height="27" viewBox="0 0 27 27" fill="none" xmlns="http://www.w3.org/2000/svg">
<path fill-rule="evenodd" clip-rule="evenodd" d="M13.4844 0C15.913 0 18.1604 0.607159 20.2266 1.82148C22.2927 3.0358 23.933 4.67603 25.1473 6.74219C26.3616 8.80834 26.9687 11.0557 26.9687 13.4844C26.9687 15.913 26.3616 18.1604 25.1473 20.2266C23.933 22.2927 22.2927 23.933 20.2266 25.1473C18.1604 26.3616 15.913 26.9687 13.4844 26.9687C11.0557 26.9687 8.80834 26.3616 6.74219 25.1473C4.67603 23.933 3.0358 22.2927 1.82148 20.2266C0.607159 18.1604 0 15.913 0 13.4844C0 11.0557 0.607159 8.80834 1.82148 6.74219C3.0358 4.67603 4.67603 3.0358 6.74219 1.82148C8.80834 0.607159 11.0557 0 13.4844 0ZM20.4441 22.9452V22.184C20.4441 21.2415 20.0997 20.4259 19.411 19.7372C18.7223 19.0485 17.9067 18.7041 16.9642 18.7041C16.8192 18.7041 16.5474 18.7585 16.1486 18.8672C15.2424 19.1572 14.3543 19.3022 13.4844 19.3022C12.6144 19.3022 11.7263 19.1572 10.8201 18.8672C10.4214 18.7585 10.1495 18.7041 10.0046 18.7041C9.06209 18.7041 8.24651 19.0485 7.55779 19.7372C6.86907 20.4259 6.52471 21.2415 6.52471 22.184V22.9452C8.59087 24.4676 10.9108 25.2288 13.4844 25.2288C16.058 25.2288 18.3779 24.4676 20.4441 22.9452ZM24.4132 17.7798C23.8695 19.1572 23.1083 20.3716 22.1296 21.4228C21.9121 20.1541 21.3231 19.0938 20.3625 18.242C19.4019 17.3901 18.2692 16.9642 16.9642 16.9642C16.638 16.9642 16.203 17.0548 15.6593 17.2361C14.8981 17.4536 14.1731 17.5623 13.4844 17.5623C12.7957 17.5623 12.0707 17.4536 11.3095 17.2361C10.7658 17.0548 10.3308 16.9642 10.0045 16.9642C8.6996 16.9642 7.56684 17.3901 6.60626 18.242C5.64568 19.0938 5.05664 20.1541 4.83915 21.4228C3.86045 20.3716 3.09924 19.1572 2.55551 17.7798C2.01179 16.4024 1.73992 14.9706 1.73992 13.4844C1.73992 11.3457 2.26552 9.37926 3.31673 7.58496C4.36793 5.79067 5.79067 4.36793 7.58496 3.31673C9.37926 2.26552 11.3457 1.73992 13.4844 1.73992C15.623 1.73992 17.5895 2.26552 19.3838 3.31673C21.1781 4.36793 22.6008 5.79067 23.652 7.58496C24.7032 9.37926 25.2288 11.3457 25.2288 13.4844C25.2288 14.9706 24.957 16.4024 24.4132 17.7798ZM13.4844 6.08972C14.7893 6.08972 15.913 6.56095 16.8555 7.5034C17.7979 8.44586 18.2692 9.56956 18.2692 10.8745C18.2692 12.1794 17.7979 13.3031 16.8555 14.2456C15.913 15.188 14.7893 15.6593 13.4844 15.6593C12.1795 15.6593 11.0558 15.188 10.1133 14.2456C9.17085 13.3031 8.69962 12.1794 8.69962 10.8745C8.69962 9.56956 9.17085 8.44586 10.1133 7.5034C11.0558 6.56095 12.1795 6.08972 13.4844 6.08972ZM15.6321 13.0222C15.034 13.6203 14.3181 13.9193 13.4844 13.9193C12.6506 13.9193 11.9347 13.6203 11.3366 13.0222C10.7385 12.4241 10.4395 11.7082 10.4395 10.8745C10.4395 10.0408 10.7385 9.32487 11.3366 8.72678C11.9347 8.12868 12.6506 7.82963 13.4844 7.82963C14.3181 7.82963 15.034 8.12868 15.6321 8.72678C16.2302 9.32487 16.5292 10.0408 16.5292 10.8745C16.5292 11.7082 16.2302 12.4241 15.6321 13.0222Z" fill="#C0CCDA"/>
</svg>
