<svg width="30" height="25" viewBox="0 0 30 25" fill="none" xmlns="http://www.w3.org/2000/svg">
<path d="M26.8945 6.25C26.9336 6.41026 26.9531 6.67067 26.9531 7.03125C26.9531 9.91586 26.2695 12.7003 24.9023 15.3846C23.4961 18.2292 21.5234 20.4928 18.9844 22.1755C16.2109 24.0585 13.0273 25 9.43359 25C5.99609 25 2.85156 24.0585 0 22.1755C0.429687 22.2155 0.917969 22.2356 1.46484 22.2356C4.31641 22.2356 6.875 21.3341 9.14062 19.5312C7.77344 19.5312 6.57227 19.1206 5.53711 18.2993C4.50195 17.478 3.78906 16.4463 3.39844 15.2043C3.78906 15.2444 4.16016 15.2644 4.51172 15.2644C5.05859 15.2644 5.60547 15.2043 6.15234 15.0841C4.74609 14.7636 3.57422 14.0224 2.63672 12.8606C1.69922 11.6987 1.23047 10.3766 1.23047 8.89423V8.77404C2.08984 9.29487 3.00781 9.57532 3.98437 9.61538C3.16406 9.01442 2.5 8.25321 1.99219 7.33173C1.48437 6.41026 1.23047 5.39864 1.23047 4.29688C1.23047 3.19511 1.52344 2.14343 2.10937 1.14183C3.63281 3.10497 5.49805 4.66747 7.70508 5.82933C9.91211 6.99119 12.2656 7.63221 14.7656 7.7524C14.6875 7.27163 14.6484 6.79087 14.6484 6.3101C14.6484 5.1883 14.9219 4.13662 15.4687 3.15505C16.0156 2.17348 16.7578 1.40224 17.6953 0.841346C18.6328 0.280449 19.6484 0 20.7422 0C21.6406 0 22.4707 0.180288 23.2324 0.540865C23.9941 0.901442 24.668 1.38221 25.2539 1.98317C26.6602 1.70272 27.9687 1.20192 29.1797 0.480769C28.7109 1.96314 27.8125 3.125 26.4844 3.96635C27.6562 3.80609 28.8281 3.46555 30 2.94471C29.1406 4.22676 28.1055 5.32853 26.8945 6.25Z" fill="white"/>
</svg>
