<svg width="29" height="28" viewBox="0 0 29 28" fill="none" xmlns="http://www.w3.org/2000/svg">
<path fill-rule="evenodd" clip-rule="evenodd" d="M21.3142 1.66346C19.1714 0.554487 16.8219 0 14.2656 0C11.7469 0 9.4162 0.629673 7.27343 1.88902C5.13067 3.14836 3.42961 4.84942 2.17027 6.99218C0.910923 9.13495 0.28125 11.4657 0.28125 13.9844C0.28125 16.5031 0.910923 18.8338 2.17027 20.9766C3.42961 23.1193 5.13067 24.8204 7.27343 26.0797C9.4162 27.3391 11.7469 27.9687 14.2656 27.9687C15.7693 27.9687 17.226 27.7338 18.6357 27.2639C20.0454 26.794 21.3518 26.1267 22.5547 25.2621C22.7051 25.1493 22.7897 24.9895 22.8085 24.7828C22.8273 24.576 22.7803 24.3975 22.6675 24.2471L22.3856 23.9088C22.2728 23.796 22.1318 23.7208 21.9627 23.6832C21.7935 23.6456 21.6337 23.6832 21.4834 23.796C20.4308 24.5478 19.2842 25.1305 18.0437 25.544C16.8031 25.9575 15.5438 26.1643 14.2656 26.1643C12.0477 26.1643 10.0083 25.6192 8.14746 24.529C6.28663 23.4389 4.81113 21.9634 3.72095 20.1025C2.63077 18.2417 2.08568 16.2023 2.08568 13.9844C2.08568 11.7664 2.63077 9.72703 3.72095 7.86621C4.81113 6.00538 6.28663 4.52988 8.14746 3.4397C10.0083 2.34952 12.0477 1.80443 14.2656 1.80443C16.4836 1.80443 18.523 2.27434 20.3838 3.21415C22.2446 4.15396 23.7013 5.46969 24.7539 7.16135C25.8817 8.92819 26.4456 10.9018 26.4456 13.0822C26.4456 15.037 25.8065 16.5594 24.5283 17.6496C23.3254 18.6646 21.7841 19.1721 19.9045 19.1721C19.3782 19.1721 19.0305 19.0217 18.8613 18.721C18.6921 18.4203 18.6639 17.9316 18.7767 17.2549L20.6375 8.00718C20.6751 7.81922 20.6187 7.64065 20.4684 7.47149C20.318 7.30232 20.1488 7.21774 19.9609 7.21774H19.2278C19.0774 7.21774 18.9365 7.26473 18.8049 7.35871C18.6733 7.45269 18.6075 7.59366 18.6075 7.78163L18.5512 8.00718C18.476 8.4207 18.4196 8.81542 18.382 9.19134C18.0437 8.43949 17.508 7.84741 16.7749 7.4151C16.0419 6.98279 15.1866 6.76663 14.2092 6.76663C12.9311 6.76663 11.7187 7.14255 10.5722 7.8944C9.4256 8.64625 8.51398 9.68004 7.83732 10.9958C7.08547 12.3867 6.70955 13.9468 6.70955 15.676C6.70955 17.4053 7.16066 18.7586 8.06287 19.736C8.96509 20.7134 10.2244 21.2021 11.8409 21.2021C12.8559 21.2021 13.8333 20.9202 14.7731 20.3563C15.5626 19.8676 16.2016 19.2661 16.6903 18.5518C16.6903 19.3037 16.9253 19.8864 17.3952 20.2999C17.8651 20.7134 18.4948 20.9202 19.2842 20.9202C22.254 20.9202 24.5095 20.1871 26.0508 18.721C27.5169 17.3677 28.25 15.4881 28.25 13.0822C28.25 10.5635 27.6109 8.28912 26.3328 6.25913C25.1298 4.30433 23.457 2.77244 21.3142 1.66346ZM14.9987 18.2699C14.134 18.9842 13.1754 19.3413 12.1229 19.3413C11.1079 19.3413 10.309 19.003 9.72634 18.3263C9.14366 17.6496 8.85231 16.7098 8.85231 15.5069C8.85231 14.1911 9.11546 12.9882 9.64175 11.898C10.168 10.883 10.8541 10.0936 11.6999 9.52967C12.5458 8.96578 13.4198 8.68384 14.322 8.68384C15.3746 8.68384 16.1828 9.02217 16.7467 9.69883C17.3106 10.3755 17.5925 11.2683 17.5925 12.3773C17.5925 13.4863 17.3576 14.5764 16.8877 15.6478C16.4178 16.7192 15.7881 17.5932 14.9987 18.2699Z" fill="#C0CCDA"/>
</svg>
